<?xml version="1.0" encoding="UTF-8" standalone="no"?>
<!-- Created with Inkscape (http://www.inkscape.org/) -->

<svg
   xmlns:dc="http://purl.org/dc/elements/1.1/"
   xmlns:cc="http://creativecommons.org/ns#"
   xmlns:rdf="http://www.w3.org/1999/02/22-rdf-syntax-ns#"
   xmlns:svg="http://www.w3.org/2000/svg"
   xmlns="http://www.w3.org/2000/svg"
   xmlns:sodipodi="http://sodipodi.sourceforge.net/DTD/sodipodi-0.dtd"
   xmlns:inkscape="http://www.inkscape.org/namespaces/inkscape"
   width="122.09138mm"
   height="125.63208mm"
   viewBox="0 0 432.6073 445.15304"
   id="svg2"
   version="1.1"
   inkscape:version="0.91 r13725"
   sodipodi:docname="monish.svg">
  <defs
     id="defs4" />
  <sodipodi:namedview
     id="base"
     pagecolor="#ffffff"
     bordercolor="#666666"
     borderopacity="1.0"
     inkscape:pageopacity="0.0"
     inkscape:pageshadow="2"
     inkscape:zoom="0.62386616"
     inkscape:cx="207.38351"
     inkscape:cy="167.97681"
     inkscape:document-units="px"
     inkscape:current-layer="layer1"
     showgrid="false"
     inkscape:window-width="1280"
     inkscape:window-height="741"
     inkscape:window-x="0"
     inkscape:window-y="27"
     inkscape:window-maximized="1"
     fit-margin-top="1"
     fit-margin-left="1"
     fit-margin-right="1"
     fit-margin-bottom="1" />
  <metadata
     id="metadata7">
    <rdf:RDF>
      <cc:Work
         rdf:about="">
        <dc:format>image/svg+xml</dc:format>
        <dc:type
           rdf:resource="http://purl.org/dc/dcmitype/StillImage" />
        <dc:title></dc:title>
      </cc:Work>
    </rdf:RDF>
  </metadata>
  <g
     inkscape:label="Layer 1"
     inkscape:groupmode="layer"
     id="layer1"
     style="display:inline"
     transform="translate(-144.44531,-22.532862)">
    <g
       id="g4498">
      <g
         id="g4479">
        <rect
           style="opacity:1;fill:#000000;fill-opacity:1;stroke:none;stroke-width:2;stroke-miterlimit:4;stroke-dasharray:none;stroke-opacity:1"
           id="rect4360"
           width="32.859612"
           height="46.484329"
           x="186.73877"
           y="405.58887"
           ry="6.0028901" />
        <rect
           ry="6.0028901"
           y="405.58887"
           x="506.73877"
           height="46.484329"
           width="32.859612"
           id="rect4362"
           style="opacity:1;fill:#000000;fill-opacity:1;stroke:none;stroke-width:2;stroke-miterlimit:4;stroke-dasharray:none;stroke-opacity:1" />
        <path
           style="font-style:normal;font-variant:normal;font-weight:normal;font-stretch:normal;font-size:421.55822754px;line-height:125%;font-family:'Almoni DL AAA';-inkscape-font-specification:'Almoni DL AAA';letter-spacing:0px;word-spacing:0px;display:inline;fill:#000000;fill-opacity:1;stroke:none;stroke-width:0.92073256px;stroke-linecap:butt;stroke-linejoin:miter;stroke-opacity:1"
           d="m 353.19727,26.085938 c -34.31384,0.598001 -68.87205,1.632166 -102.67774,7.873046 -19.06635,9.86781 -26.04175,31.97361 -34.55469,50.046875 -10.92345,26.198731 -19.03847,54.477231 -25.66015,81.363281 -2.04676,-9.68665 -13.25595,-11.86734 -21.6555,-11.27751 -7.36955,0.0756 -16.15962,1.93949 -18.86989,9.81462 -3.92792,9.39099 0.0928,19.59781 -1.63086,29.20898 -0.66323,9.18909 0.36997,21.77118 10.82031,24.91407 6.57041,2.30486 13.66679,1.33702 20.41797,0.57422 -8.99667,49.0223 -13.6655,99.06444 -10.91016,148.9121 4.7491,2.92222 -0.18142,8.80693 1.68164,13.07422 -0.36296,14.3568 0.63108,29.33614 7.16797,42.33399 1.00843,11.1707 -2.88161,23.568 2.65039,33.95508 5.36451,7.76795 15.73049,7.72001 24.11133,6.9082 8.38057,0.85984 18.97006,0.45163 23.41992,-8.06641 1.66485,-1.92178 1.2935,-6.03773 2.77149,-7.10351 35.33858,6.53745 71.4623,6.97142 107.30243,7.86331 52.40418,0.5711 104.93384,-2.25437 156.85382,-9.26761 3.87695,-2.49523 2.15136,2.42251 3.32617,4.62109 2.07193,8.29416 10.70559,13.34807 19.00195,12.03321 8.51054,-0.15525 17.87078,1.1855 25.69336,-2.64453 9.50369,-6.61708 7.41882,-19.6261 6.82422,-29.43164 -0.80268,-6.61924 1.9149,-12.67651 5.59027,-17.94184 7.5842,-16.26479 6.8113,-34.749 7.45856,-52.22418 -1.36965,-4.03143 -3.05612,-7.8685 -2.11084,-12.23005 -0.82079,-44.02639 -7.21579,-87.80207 -16.87744,-130.71331 8.19648,1.16564 18.22768,1.96921 24.88086,-3.87305 6.2101,-5.68575 5.54568,-14.61591 4.85742,-22.17773 -0.0569,-10.48536 1.9934,-22.21474 -2.99805,-31.95898 -7.08167,-8.62776 -19.77792,-6.83829 -29.48437,-5.4043 -5.68928,1.87201 -9.35905,7.42337 -10.42969,13.11523 C 516.48966,121.50045 498.63366,75.645064 474.44531,33.136719 434.19527,28.636711 393.71271,25.890317 353.19727,26.085938 Z m 8.53906,146.855472 c 0.19545,0.0662 -0.61979,-0.16076 0,0 z M 209.28516,417.05273 c 2.72305,0.0449 -0.0315,3.50717 0.80859,4.9961 -3.1857,-1.4211 -6.44831,-2.73932 -9.375,-4.66406 2.89138,-0.17543 5.6502,-0.24783 8.56641,-0.33204 z m 317.91211,0.15039 c 0.99899,0.41006 -3.3163,1.98453 -4.44922,2.45704 -2.44645,0.37981 -7.74227,4.27243 -6.31836,-0.55664 -0.90697,-3.31256 3.46385,-0.85661 5.29883,-1.63868 1.82303,-0.0829 3.64329,-0.23815 5.46875,-0.26172 z"
           id="path4398"
           inkscape:connector-curvature="0" />
        <g
           id="g4156">
          <rect
             ry="6.0028858"
             y="162.08803"
             x="539.56708"
             height="45.252525"
             width="23.780664"
             id="rect4150"
             style="opacity:1;fill:#000000;fill-opacity:1;stroke:none;stroke-width:1;stroke-miterlimit:2;stroke-dasharray:none;stroke-opacity:1" />
          <path
             inkscape:connector-curvature="0"
             id="path4152"
             d="m 521.78932,185.40694 23.08803,0"
             style="fill:none;fill-rule:evenodd;stroke:#000000;stroke-width:2;stroke-linecap:butt;stroke-linejoin:miter;stroke-miterlimit:4;stroke-dasharray:none;stroke-opacity:1" />
          <path
             inkscape:connector-curvature="0"
             id="path4154"
             d="m 525.94517,207.34056 29.32179,0"
             style="fill:none;fill-rule:evenodd;stroke:#000000;stroke-width:2;stroke-linecap:butt;stroke-linejoin:miter;stroke-miterlimit:4;stroke-dasharray:none;stroke-opacity:1" />
        </g>
        <g
           id="g4161"
           transform="matrix(-1,0,0,1,721.1371,0)">
          <rect
             style="opacity:1;fill:#000000;fill-opacity:1;stroke:none;stroke-width:1;stroke-miterlimit:2;stroke-dasharray:none;stroke-opacity:1"
             id="rect4163"
             width="23.780664"
             height="45.252525"
             x="539.56708"
             y="162.08803"
             ry="6.0028858" />
          <path
             style="fill:none;fill-rule:evenodd;stroke:#000000;stroke-width:2;stroke-linecap:butt;stroke-linejoin:miter;stroke-miterlimit:4;stroke-dasharray:none;stroke-opacity:1"
             d="m 521.78932,185.40694 23.08803,0"
             id="path4165"
             inkscape:connector-curvature="0" />
          <path
             style="fill:none;fill-rule:evenodd;stroke:#000000;stroke-width:2;stroke-linecap:butt;stroke-linejoin:miter;stroke-miterlimit:4;stroke-dasharray:none;stroke-opacity:1"
             d="m 525.94517,207.34056 29.32179,0"
             id="path4167"
             inkscape:connector-curvature="0" />
        </g>
        <path
           style="opacity:1;fill:#ffff00;fill-opacity:1;stroke:#ffff00;stroke-width:1;stroke-miterlimit:2;stroke-dasharray:none;stroke-opacity:1"
           d="m 256.73883,40.183273 c 70.49543,-9.471261 140.99087,-7.730714 211.4863,0 56.79175,101.311837 84.74513,244.008357 81.97451,320.851347 -36.55909,6.64256 -42.04045,9.39805 -75.45976,15.2069 -32.30991,5.61601 -76.45509,9.73835 -106.38122,8.86355 -29.92614,-0.8748 -89.02286,-3.03056 -117.21646,-5.86889 -28.19361,-2.83834 -50.85224,-11.29194 -73.43659,-19.12508 -6.98203,-126.40493 47.0248,-317.523334 79.03322,-319.927827 z"
           id="rect4147"
           inkscape:connector-curvature="0"
           sodipodi:nodetypes="cccssscc" />
        <path
           style="fill:#000000;fill-rule:evenodd;stroke:#000000;stroke-width:1px;stroke-linecap:butt;stroke-linejoin:miter;stroke-opacity:1"
           d="m 241.70211,333.5979 123.31741,4.22803 123.3174,-7.75138 -28.8915,48.62229 -80.33249,5.63737 -89.4932,-1.40934 -25.36815,-3.52336 z"
           id="path4169"
           inkscape:connector-curvature="0" />
        <path
           style="opacity:1;fill:#e6e6e6;fill-opacity:1;stroke:#ffffff;stroke-width:2;stroke-miterlimit:4;stroke-dasharray:none;stroke-opacity:1"
           d="m 184.28463,310.34378 45.07256,9.86539 c 3.24869,0.71107 8.77327,10.06047 10.23091,13.0496 l 13.38875,27.4558 c 1.45764,2.98913 -11.16072,2.20069 -14.45894,1.77486 l -43.66322,-5.63737 c -3.29822,-0.42583 -15.79594,-4.79209 -15.86828,-8.1169 l -0.70467,-32.38849 c -0.0723,-3.32481 2.7542,-6.71396 6.00289,-6.00289 z"
           id="rect4171"
           inkscape:connector-curvature="0"
           sodipodi:nodetypes="sssssssss" />
        <path
           sodipodi:nodetypes="sssssssss"
           inkscape:connector-curvature="0"
           id="path4174"
           d="m 540.60685,308.34378 -45.07256,9.86539 c -3.24869,0.71107 -8.98038,9.96807 -10.23091,13.0496 l -10.57007,26.04645 c -1.25053,3.08153 8.34204,3.61004 11.64026,3.18421 l 43.66322,-5.63737 c 3.29822,-0.42583 15.79594,-4.79209 15.86828,-8.1169 l 0.70467,-32.38849 c 0.0723,-3.32481 -2.7542,-6.71396 -6.00289,-6.00289 z"
           style="opacity:1;fill:#e6e6e6;fill-opacity:1;stroke:#ffffff;stroke-width:2;stroke-miterlimit:4;stroke-dasharray:none;stroke-opacity:1" />
        <path
           style="fill:#1e140b;fill-opacity:1;fill-rule:evenodd;stroke:#000000;stroke-width:1px;stroke-linecap:butt;stroke-linejoin:miter;stroke-opacity:1"
           d="m 179.69108,361.78474 0,23.25414 c 0,0 -0.27876,20.19798 4.93269,28.18683 6.0154,9.22123 17.25129,14.25387 27.48217,18.32145 19.48497,7.74681 41.11722,8.80209 62.01103,10.57006 50.78969,4.29767 102.04421,3.22026 152.91358,0 27.88428,-1.7652 56.21404,-3.15115 83.15117,-10.57006 9.63447,-2.65348 20.14824,-5.19136 27.48216,-11.97941 6.24639,-5.78147 9.5605,-14.3891 11.97941,-22.54947 2.27851,-7.68671 2.11402,-23.9588 2.11402,-23.9588 l 0.70466,-12.68408 c 0,0 -81.87113,17.22111 -123.3174,22.54947 -18.69018,2.40282 -37.53117,3.99049 -56.37367,4.22802 -37.86099,0.47728 -75.86567,-1.06043 -113.45202,-5.63737 -19.48034,-2.37215 -38.92856,-5.83228 -57.78301,-11.27473 -7.50183,-2.16545 -21.84479,-8.45605 -21.84479,-8.45605 z"
           id="path4176"
           inkscape:connector-curvature="0"
           sodipodi:nodetypes="ccaaaaaaaccaaaac" />
      </g>
      <path
         sodipodi:nodetypes="cccccccccc"
         inkscape:connector-curvature="0"
         id="path4181"
         d="m 229.62046,91.68307 c -15.53861,35.70989 -23.78861,71.41979 -22.42249,107.12968 l 8.55621,2.98966 295.4786,-2.98966 5.48105,-4.4845 C 512.16209,159.9471 503.73121,125.56594 486.07709,91.184792 l -29.65485,-3.98622 -99.15723,-0.498278 -94.67274,1.99311 z"
         style="fill:#b3b3b3;fill-rule:evenodd;stroke:#000000;stroke-width:1px;stroke-linecap:butt;stroke-linejoin:miter;stroke-opacity:1" />
    </g>
  </g>
</svg>
